<?xml version="1.0" standalone="no"?>
<!DOCTYPE svg PUBLIC "-//W3C//DTD SVG 20010904//EN"
 "http://www.w3.org/TR/2001/REC-SVG-20010904/DTD/svg10.dtd">
<svg version="1.0" xmlns="http://www.w3.org/2000/svg"
 width="105.000000pt" height="105.000000pt" viewBox="0 0 105.000000 105.000000"
 preserveAspectRatio="xMidYMid meet">

<g transform="translate(0.000000,105.000000) scale(0.100000,-0.100000)"
fill="#000000" stroke="none">
<path d="M414 1035 c-210 -46 -375 -225 -406 -441 -22 -156 26 -305 140 -425
158 -168 397 -213 606 -114 91 43 188 142 236 239 100 203 68 423 -86 586
-130 138 -310 194 -490 155z m426 -280 c15 -9 14 -437 -2 -453 -18 -18 -611
-17 -626 1 -15 17 -18 433 -4 450 8 9 90 12 316 10 168 -1 310 -4 316 -8z"/>
</g>
</svg>
